G75*
%MOIN*%
%OFA0B0*%
%FSLAX25Y25*%
%IPPOS*%
%LPD*%
%AMOC8*
5,1,8,0,0,1.08239X$1,22.5*
%
%ADD10C,0.00000*%
%ADD11R,0.06600X0.06600*%
%ADD12OC8,0.06600*%
%ADD13C,0.06000*%
%ADD14OC8,0.05200*%
%ADD15C,0.03200*%
%ADD16C,0.01000*%
D10*
X0001000Y0017478D02*
X0001000Y0260853D01*
X0001034Y0261143D01*
X0001074Y0261432D01*
X0001122Y0261721D01*
X0001177Y0262008D01*
X0001238Y0262293D01*
X0001307Y0262577D01*
X0001382Y0262860D01*
X0001464Y0263140D01*
X0001553Y0263418D01*
X0001648Y0263694D01*
X0001751Y0263968D01*
X0001859Y0264239D01*
X0001975Y0264508D01*
X0002096Y0264773D01*
X0002224Y0265036D01*
X0002359Y0265295D01*
X0002500Y0265551D01*
X0002646Y0265804D01*
X0002799Y0266053D01*
X0002958Y0266298D01*
X0003123Y0266539D01*
X0003293Y0266776D01*
X0003469Y0267009D01*
X0003651Y0267238D01*
X0003838Y0267462D01*
X0004031Y0267682D01*
X0004229Y0267897D01*
X0004432Y0268107D01*
X0004640Y0268312D01*
X0004853Y0268512D01*
X0005070Y0268707D01*
X0005293Y0268897D01*
X0005519Y0269081D01*
X0005751Y0269259D01*
X0005986Y0269432D01*
X0006226Y0269599D01*
X0006469Y0269761D01*
X0006717Y0269916D01*
X0006968Y0270066D01*
X0007222Y0270209D01*
X0007480Y0270346D01*
X0007741Y0270477D01*
X0008006Y0270601D01*
X0008273Y0270719D01*
X0008543Y0270831D01*
X0008816Y0270936D01*
X0009091Y0271034D01*
X0009368Y0271126D01*
X0009647Y0271211D01*
X0009929Y0271289D01*
X0010212Y0271360D01*
X0010497Y0271425D01*
X0010784Y0271483D01*
X0011071Y0271533D01*
X0011360Y0271577D01*
X0011650Y0271614D01*
X0011941Y0271643D01*
X0012232Y0271666D01*
X0012524Y0271682D01*
X0012816Y0271690D01*
X0013108Y0271692D01*
X0013400Y0271686D01*
X0013692Y0271674D01*
X0013983Y0271654D01*
X0014274Y0271627D01*
X0076789Y0271627D01*
X0076789Y0271628D02*
X0077161Y0271623D01*
X0077534Y0271610D01*
X0077905Y0271588D01*
X0078276Y0271556D01*
X0078647Y0271516D01*
X0079016Y0271466D01*
X0079384Y0271408D01*
X0079750Y0271341D01*
X0080115Y0271265D01*
X0080477Y0271180D01*
X0080838Y0271087D01*
X0081196Y0270984D01*
X0081552Y0270874D01*
X0081904Y0270754D01*
X0082254Y0270626D01*
X0082601Y0270490D01*
X0082944Y0270346D01*
X0083284Y0270193D01*
X0083619Y0270032D01*
X0083951Y0269863D01*
X0084279Y0269686D01*
X0084602Y0269501D01*
X0084921Y0269308D01*
X0085235Y0269108D01*
X0085544Y0268900D01*
X0085848Y0268685D01*
X0086147Y0268462D01*
X0086440Y0268232D01*
X0086727Y0267996D01*
X0087009Y0267752D01*
X0087285Y0267502D01*
X0087554Y0267245D01*
X0087818Y0266981D01*
X0088075Y0266712D01*
X0088325Y0266436D01*
X0088569Y0266154D01*
X0088805Y0265867D01*
X0089035Y0265574D01*
X0089258Y0265275D01*
X0089473Y0264971D01*
X0089681Y0264662D01*
X0089881Y0264348D01*
X0090074Y0264029D01*
X0090259Y0263706D01*
X0090436Y0263378D01*
X0090605Y0263046D01*
X0090766Y0262711D01*
X0090919Y0262371D01*
X0091063Y0262028D01*
X0091199Y0261681D01*
X0091327Y0261331D01*
X0091447Y0260979D01*
X0091557Y0260623D01*
X0091660Y0260265D01*
X0091753Y0259904D01*
X0091838Y0259542D01*
X0091914Y0259177D01*
X0091981Y0258811D01*
X0092039Y0258443D01*
X0092089Y0258074D01*
X0092129Y0257703D01*
X0092161Y0257332D01*
X0092183Y0256961D01*
X0092196Y0256588D01*
X0092201Y0256216D01*
X0092201Y0016251D01*
X0080116Y0001667D02*
X0016811Y0001667D01*
X0016429Y0001672D01*
X0016047Y0001685D01*
X0015666Y0001709D01*
X0015285Y0001741D01*
X0014905Y0001782D01*
X0014526Y0001833D01*
X0014149Y0001893D01*
X0013773Y0001962D01*
X0013399Y0002039D01*
X0013027Y0002126D01*
X0012657Y0002222D01*
X0012290Y0002327D01*
X0011925Y0002441D01*
X0011563Y0002563D01*
X0011204Y0002694D01*
X0010849Y0002834D01*
X0010497Y0002983D01*
X0010148Y0003139D01*
X0009804Y0003305D01*
X0009463Y0003478D01*
X0009127Y0003660D01*
X0008795Y0003849D01*
X0008468Y0004047D01*
X0008146Y0004253D01*
X0007829Y0004466D01*
X0007518Y0004687D01*
X0007211Y0004915D01*
X0006910Y0005151D01*
X0006615Y0005393D01*
X0006326Y0005643D01*
X0006043Y0005900D01*
X0005767Y0006164D01*
X0005497Y0006434D01*
X0005233Y0006710D01*
X0004976Y0006993D01*
X0004726Y0007282D01*
X0004484Y0007577D01*
X0004248Y0007878D01*
X0004020Y0008185D01*
X0003799Y0008496D01*
X0003586Y0008813D01*
X0003380Y0009135D01*
X0003182Y0009462D01*
X0002993Y0009794D01*
X0002811Y0010130D01*
X0002638Y0010471D01*
X0002472Y0010815D01*
X0002316Y0011164D01*
X0002167Y0011516D01*
X0002027Y0011871D01*
X0001896Y0012230D01*
X0001774Y0012592D01*
X0001660Y0012957D01*
X0001555Y0013324D01*
X0001459Y0013694D01*
X0001372Y0014066D01*
X0001295Y0014440D01*
X0001226Y0014816D01*
X0001166Y0015193D01*
X0001115Y0015572D01*
X0001074Y0015952D01*
X0001042Y0016333D01*
X0001018Y0016714D01*
X0001005Y0017096D01*
X0001000Y0017478D01*
X0080116Y0001666D02*
X0080438Y0001701D01*
X0080759Y0001742D01*
X0081079Y0001792D01*
X0081397Y0001849D01*
X0081714Y0001914D01*
X0082030Y0001987D01*
X0082343Y0002067D01*
X0082655Y0002155D01*
X0082964Y0002250D01*
X0083271Y0002353D01*
X0083575Y0002463D01*
X0083877Y0002581D01*
X0084175Y0002705D01*
X0084471Y0002837D01*
X0084763Y0002976D01*
X0085052Y0003122D01*
X0085337Y0003275D01*
X0085619Y0003435D01*
X0085896Y0003602D01*
X0086170Y0003775D01*
X0086439Y0003955D01*
X0086704Y0004141D01*
X0086964Y0004333D01*
X0087219Y0004532D01*
X0087470Y0004737D01*
X0087715Y0004948D01*
X0087955Y0005165D01*
X0088190Y0005387D01*
X0088420Y0005615D01*
X0088644Y0005849D01*
X0088862Y0006088D01*
X0089075Y0006332D01*
X0089281Y0006581D01*
X0089482Y0006835D01*
X0089676Y0007094D01*
X0089864Y0007358D01*
X0090045Y0007626D01*
X0090220Y0007898D01*
X0090389Y0008174D01*
X0090550Y0008455D01*
X0090705Y0008739D01*
X0090853Y0009027D01*
X0090994Y0009318D01*
X0091127Y0009613D01*
X0091254Y0009911D01*
X0091373Y0010212D01*
X0091486Y0010515D01*
X0091590Y0010822D01*
X0091687Y0011130D01*
X0091777Y0011441D01*
X0091860Y0011754D01*
X0091934Y0012069D01*
X0092001Y0012386D01*
X0092061Y0012704D01*
X0092112Y0013024D01*
X0092156Y0013344D01*
X0092192Y0013666D01*
X0092221Y0013988D01*
X0092241Y0014311D01*
X0092254Y0014635D01*
X0092259Y0014958D01*
X0092256Y0015282D01*
X0092245Y0015605D01*
X0092227Y0015928D01*
X0092201Y0016251D01*
D11*
X0046000Y0116667D03*
X0046000Y0166667D03*
X0046000Y0219167D03*
D12*
X0036000Y0219167D03*
X0036000Y0166667D03*
X0036000Y0116667D03*
D13*
X0036000Y0017167D02*
X0036000Y0011167D01*
X0026000Y0011167D02*
X0026000Y0017167D01*
X0046000Y0017167D02*
X0046000Y0011167D01*
X0056000Y0011167D02*
X0056000Y0017167D01*
D14*
X0056000Y0036667D03*
X0056000Y0086667D03*
D15*
X0055900Y0087167D02*
X0055900Y0106067D01*
X0046000Y0115967D01*
X0046000Y0116667D02*
X0046000Y0166667D01*
X0046000Y0219167D01*
X0036100Y0196267D02*
X0040600Y0191767D01*
X0040600Y0113267D01*
X0046000Y0107867D01*
X0046000Y0014167D01*
X0056000Y0014167D02*
X0055900Y0027367D01*
X0055900Y0035867D01*
X0036200Y0029867D02*
X0026000Y0014167D01*
X0036200Y0029867D02*
X0036200Y0111967D01*
X0035200Y0115967D01*
X0036100Y0196267D02*
X0036000Y0219167D01*
D16*
X0036000Y0116667D02*
X0035200Y0115967D01*
X0046000Y0115967D02*
X0046000Y0116667D01*
X0055900Y0087167D02*
X0056000Y0086667D01*
X0056000Y0036667D02*
X0055900Y0035867D01*
M02*
