%
M48
M72
T01C0.02400
T02C0.02756
T03C0.03200
T04C0.03543
T05C0.04000
T06C0.11800
T07C0.13000
%
T01
X153791Y34250
X158791Y61750
X188791Y79250
X206291Y69250
X243791Y99250
X291291Y94250
X283791Y139250
X268791Y144250
X238791Y149250
X238791Y159250
X223791Y164250
X208791Y159250
X203791Y166750
X203791Y174250
X183791Y186750
X168791Y204250
X178791Y214250
X206291Y221750
X201291Y234250
X241291Y259250
X208791Y266750
X198791Y261750
X181291Y266750
X171291Y264250
X161291Y261750
X128791Y264250
X78791Y249250
X111291Y224250
X123791Y204250
X103791Y156750
X123791Y149250
X103791Y141750
X168791Y111750
X203791Y139250
X183791Y149250
X178791Y144250
X253791Y174250
X268791Y179250
X283791Y169250
X298791Y159250
X298791Y149250
X321291Y144250
X353791Y159250
X311291Y179250
X326291Y204250
X291291Y209250
X278791Y221750
X286291Y239250
X281291Y249250
X286291Y261750
X298791Y249250
X303791Y259250
X348791Y254250
X358791Y259250
X371291Y264250
X376291Y259250
X381291Y254250
X358791Y244250
X366291Y234250
X408791Y229250
X413791Y249250
X418791Y264250
X426291Y264250
X373791Y204250
X383791Y194250
X411291Y199250
X416291Y154250
X486291Y154250
X488791Y139250
X271291Y49250
X236291Y204250
X223791Y204250
T02
X218791Y226750
X198791Y226750
X168791Y226750
X158791Y226750
X253791Y226750
X263791Y226750
T03
X263791Y246750
X253791Y246750
X243791Y246750
X233791Y246750
X223791Y246750
X213791Y246750
X203791Y246750
X193791Y246750
X183791Y246750
X173791Y246750
X163791Y246750
X153791Y246750
X143791Y246750
X133791Y246750
X133791Y276750
X143791Y276750
X153791Y276750
X163791Y276750
X173791Y276750
X183791Y276750
X193791Y276750
X203791Y276750
X213791Y276750
X223791Y276750
X233791Y276750
X243791Y276750
X253791Y276750
X263791Y276750
X298791Y266750
X303791Y274250
X308791Y266750
X333791Y276750
X343791Y276750
X353791Y276750
X363791Y276750
X373791Y276750
X393791Y276750
X403791Y276750
X413791Y276750
X423791Y276750
X433791Y276750
X478791Y251750
X478791Y241750
X478791Y231750
X478791Y221750
X478791Y211750
X478791Y201750
X478791Y191750
X478791Y181750
X508791Y181750
X508791Y191750
X508791Y201750
X508791Y211750
X508791Y221750
X508791Y231750
X508791Y241750
X508791Y251750
X433791Y216750
X423791Y216750
X413791Y216750
X403791Y216750
X393791Y216750
X373791Y216750
X363791Y216750
X353791Y216750
X343791Y216750
X333791Y216750
X328791Y191750
X338791Y191750
X348791Y191750
X358791Y191750
X368791Y191750
X408791Y181750
X418791Y181750
X413791Y189250
X408791Y161750
X418791Y161750
X428791Y161750
X438791Y161750
X448791Y161750
X458791Y161750
X468791Y161750
X478791Y161750
X478791Y131750
X468791Y131750
X458791Y131750
X448791Y131750
X438791Y131750
X428791Y131750
X418791Y131750
X408791Y131750
X368791Y131750
X358791Y131750
X348791Y131750
X338791Y131750
X328791Y131750
X308791Y131750
X298791Y131750
X288791Y131750
X278791Y131750
X268791Y131750
X248791Y131750
X238791Y131750
X228791Y131750
X218791Y131750
X208791Y131750
X193791Y131750
X183791Y131750
X173791Y131750
X163791Y131750
X153791Y131750
X143791Y131750
X133791Y131750
X123791Y131750
X123791Y161750
X133791Y161750
X143791Y161750
X153791Y161750
X163791Y161750
X173791Y161750
X183791Y161750
X193791Y161750
X208791Y191750
X218791Y191750
X228791Y191750
X238791Y191750
X248791Y191750
X268791Y191750
X278791Y191750
X288791Y191750
X298791Y191750
X308791Y191750
X288791Y114250
X283791Y106750
X293791Y106750
X303201Y84427
X303201Y74427
X343791Y106750
X353791Y106750
X348791Y114250
X362256Y84427
X362256Y74427
X421311Y74427
X421311Y84427
X480366Y84427
X480366Y74427
X244145Y74427
X244145Y84427
X233791Y106750
X223791Y106750
X228791Y114250
X181153Y84427
X181153Y74427
X126035Y74427
X126035Y84427
X70917Y84427
X70917Y74427
T04
X70484Y19191
X70484Y29191
X70484Y39191
X88365Y52616
X124421Y39191
X124421Y29191
X124421Y19191
X182295Y19191
X182295Y29191
X182295Y39191
X200838Y52616
X244106Y39191
X244106Y29191
X244106Y19191
X263830Y52616
X304854Y39191
X304854Y29191
X304854Y19191
X361665Y19191
X361665Y29191
X361665Y39191
X381941Y52616
X422413Y39191
X422413Y29191
X422413Y19191
X479224Y19191
X479224Y29191
X479224Y39191
X500051Y52616
X500051Y82616
X440996Y82616
X440996Y52616
X381941Y82616
X322886Y82616
X322886Y52616
X263830Y82616
X200838Y82616
X143983Y82616
X143983Y52616
X88365Y82616
X43791Y126750
X33791Y126750
X23791Y126750
X110996Y211750
X136586Y211750
X88791Y261750
X78791Y261750
X68791Y261750
X68791Y271750
X78791Y271750
X88791Y271750
X48791Y246750
X18791Y246750
T05
X23291Y176750
X34291Y176750
X34291Y156750
X23291Y156750
X78791Y116750
X88791Y116750
X98791Y116750
T06
X50917Y193246
X39106Y211750
X62728Y211750
T07
X88791Y175750
M30
