G75*
%MOIN*%
%OFA0B0*%
%FSLAX25Y25*%
%IPPOS*%
%LPD*%
%AMOC8*
5,1,8,0,0,1.08239X$1,22.5*
%
%ADD10C,0.06000*%
%ADD11C,0.17800*%
%ADD12C,0.08200*%
%ADD13C,0.06800*%
%ADD14C,0.13800*%
%ADD15C,0.07200*%
%ADD16C,0.00500*%
%ADD17C,0.07300*%
%ADD18C,0.07400*%
%ADD19C,0.07800*%
%ADD20C,0.04800*%
D10*
X0123791Y0129150D02*
X0123791Y0134350D01*
X0133791Y0134350D02*
X0133791Y0129150D01*
X0143791Y0129150D02*
X0143791Y0134350D01*
X0153791Y0134350D02*
X0153791Y0129150D01*
X0163791Y0129150D02*
X0163791Y0134350D01*
X0173791Y0134350D02*
X0173791Y0129150D01*
X0183791Y0129150D02*
X0183791Y0134350D01*
X0193791Y0134350D02*
X0193791Y0129150D01*
X0208791Y0129150D02*
X0208791Y0134350D01*
X0218791Y0134350D02*
X0218791Y0129150D01*
X0228791Y0129150D02*
X0228791Y0134350D01*
X0238791Y0134350D02*
X0238791Y0129150D01*
X0248791Y0129150D02*
X0248791Y0134350D01*
X0268791Y0134350D02*
X0268791Y0129150D01*
X0278791Y0129150D02*
X0278791Y0134350D01*
X0288791Y0134350D02*
X0288791Y0129150D01*
X0298791Y0129150D02*
X0298791Y0134350D01*
X0308791Y0134350D02*
X0308791Y0129150D01*
X0328791Y0129150D02*
X0328791Y0134350D01*
X0338791Y0134350D02*
X0338791Y0129150D01*
X0348791Y0129150D02*
X0348791Y0134350D01*
X0358791Y0134350D02*
X0358791Y0129150D01*
X0368791Y0129150D02*
X0368791Y0134350D01*
X0368791Y0189150D02*
X0368791Y0194350D01*
X0358791Y0194350D02*
X0358791Y0189150D01*
X0348791Y0189150D02*
X0348791Y0194350D01*
X0338791Y0194350D02*
X0338791Y0189150D01*
X0328791Y0189150D02*
X0328791Y0194350D01*
X0308791Y0194350D02*
X0308791Y0189150D01*
X0298791Y0189150D02*
X0298791Y0194350D01*
X0288791Y0194350D02*
X0288791Y0189150D01*
X0278791Y0189150D02*
X0278791Y0194350D01*
X0268791Y0194350D02*
X0268791Y0189150D01*
X0248791Y0189150D02*
X0248791Y0194350D01*
X0238791Y0194350D02*
X0238791Y0189150D01*
X0228791Y0189150D02*
X0228791Y0194350D01*
X0218791Y0194350D02*
X0218791Y0189150D01*
X0208791Y0189150D02*
X0208791Y0194350D01*
X0193791Y0164350D02*
X0193791Y0159150D01*
X0183791Y0159150D02*
X0183791Y0164350D01*
X0173791Y0164350D02*
X0173791Y0159150D01*
X0163791Y0159150D02*
X0163791Y0164350D01*
X0153791Y0164350D02*
X0153791Y0159150D01*
X0143791Y0159150D02*
X0143791Y0164350D01*
X0133791Y0164350D02*
X0133791Y0159150D01*
X0123791Y0159150D02*
X0123791Y0164350D01*
X0333791Y0214150D02*
X0333791Y0219350D01*
X0343791Y0219350D02*
X0343791Y0214150D01*
X0353791Y0214150D02*
X0353791Y0219350D01*
X0363791Y0219350D02*
X0363791Y0214150D01*
X0373791Y0214150D02*
X0373791Y0219350D01*
X0393791Y0219350D02*
X0393791Y0214150D01*
X0403791Y0214150D02*
X0403791Y0219350D01*
X0413791Y0219350D02*
X0413791Y0214150D01*
X0423791Y0214150D02*
X0423791Y0219350D01*
X0433791Y0219350D02*
X0433791Y0214150D01*
X0476191Y0211750D02*
X0481391Y0211750D01*
X0481391Y0221750D02*
X0476191Y0221750D01*
X0476191Y0231750D02*
X0481391Y0231750D01*
X0481391Y0241750D02*
X0476191Y0241750D01*
X0476191Y0251750D02*
X0481391Y0251750D01*
X0506191Y0251750D02*
X0511391Y0251750D01*
X0511391Y0241750D02*
X0506191Y0241750D01*
X0506191Y0231750D02*
X0511391Y0231750D01*
X0511391Y0221750D02*
X0506191Y0221750D01*
X0506191Y0211750D02*
X0511391Y0211750D01*
X0511391Y0201750D02*
X0506191Y0201750D01*
X0506191Y0191750D02*
X0511391Y0191750D01*
X0511391Y0181750D02*
X0506191Y0181750D01*
X0481391Y0181750D02*
X0476191Y0181750D01*
X0476191Y0191750D02*
X0481391Y0191750D01*
X0481391Y0201750D02*
X0476191Y0201750D01*
X0433791Y0274150D02*
X0433791Y0279350D01*
X0423791Y0279350D02*
X0423791Y0274150D01*
X0413791Y0274150D02*
X0413791Y0279350D01*
X0403791Y0279350D02*
X0403791Y0274150D01*
X0393791Y0274150D02*
X0393791Y0279350D01*
X0373791Y0279350D02*
X0373791Y0274150D01*
X0363791Y0274150D02*
X0363791Y0279350D01*
X0353791Y0279350D02*
X0353791Y0274150D01*
X0343791Y0274150D02*
X0343791Y0279350D01*
X0333791Y0279350D02*
X0333791Y0274150D01*
D11*
X0062728Y0211750D03*
X0039106Y0211750D03*
X0050917Y0193246D03*
D12*
X0048791Y0246750D03*
X0018791Y0246750D03*
X0228791Y0114250D03*
X0223791Y0106750D03*
X0233791Y0106750D03*
X0244145Y0084427D03*
X0244145Y0074427D03*
X0263830Y0082616D03*
X0303201Y0084427D03*
X0303201Y0074427D03*
X0322886Y0082616D03*
X0343791Y0106750D03*
X0353791Y0106750D03*
X0348791Y0114250D03*
X0362256Y0084427D03*
X0362256Y0074427D03*
X0381941Y0082616D03*
X0421311Y0084427D03*
X0421311Y0074427D03*
X0440996Y0082616D03*
X0480366Y0084427D03*
X0480366Y0074427D03*
X0500051Y0082616D03*
X0500051Y0052616D03*
X0440996Y0052616D03*
X0381941Y0052616D03*
X0322886Y0052616D03*
X0263830Y0052616D03*
X0200838Y0052616D03*
X0181153Y0074427D03*
X0181153Y0084427D03*
X0200838Y0082616D03*
X0143983Y0082616D03*
X0126035Y0084427D03*
X0126035Y0074427D03*
X0143983Y0052616D03*
X0088365Y0052616D03*
X0070917Y0074427D03*
X0088365Y0082616D03*
X0070917Y0084427D03*
X0283791Y0106750D03*
X0293791Y0106750D03*
X0288791Y0114250D03*
X0408791Y0181750D03*
X0418791Y0181750D03*
X0413791Y0189250D03*
X0308791Y0266750D03*
X0303791Y0274250D03*
X0298791Y0266750D03*
D13*
X0098791Y0119750D02*
X0098791Y0113750D01*
X0088791Y0113750D02*
X0088791Y0119750D01*
X0078791Y0119750D02*
X0078791Y0113750D01*
D14*
X0088791Y0175750D03*
D15*
X0133791Y0246750D03*
X0143791Y0246750D03*
X0153791Y0246750D03*
X0163791Y0246750D03*
X0173791Y0246750D03*
X0183791Y0246750D03*
X0193791Y0246750D03*
X0203791Y0246750D03*
X0213791Y0246750D03*
X0223791Y0246750D03*
X0233791Y0246750D03*
X0243791Y0246750D03*
X0253791Y0246750D03*
X0263791Y0246750D03*
X0263791Y0276750D03*
X0253791Y0276750D03*
X0243791Y0276750D03*
X0233791Y0276750D03*
X0223791Y0276750D03*
X0213791Y0276750D03*
X0203791Y0276750D03*
X0193791Y0276750D03*
X0183791Y0276750D03*
X0173791Y0276750D03*
X0163791Y0276750D03*
X0153791Y0276750D03*
X0143791Y0276750D03*
X0133791Y0276750D03*
X0088791Y0271750D03*
X0078791Y0271750D03*
X0068791Y0271750D03*
X0068791Y0261750D03*
X0078791Y0261750D03*
X0088791Y0261750D03*
X0408791Y0161750D03*
X0418791Y0161750D03*
X0428791Y0161750D03*
X0438791Y0161750D03*
X0448791Y0161750D03*
X0458791Y0161750D03*
X0468791Y0161750D03*
X0478791Y0161750D03*
X0478791Y0131750D03*
X0468791Y0131750D03*
X0458791Y0131750D03*
X0448791Y0131750D03*
X0438791Y0131750D03*
X0428791Y0131750D03*
X0418791Y0131750D03*
X0408791Y0131750D03*
D16*
X0038021Y0156670D02*
X0037943Y0155950D01*
X0037725Y0155260D01*
X0037377Y0154626D01*
X0036912Y0154072D01*
X0036348Y0153619D01*
X0035706Y0153285D01*
X0035012Y0153083D01*
X0034291Y0153020D01*
X0033566Y0153081D01*
X0032868Y0153283D01*
X0032222Y0153617D01*
X0031653Y0154071D01*
X0031184Y0154627D01*
X0030833Y0155264D01*
X0030613Y0155957D01*
X0030532Y0156680D01*
X0030581Y0157340D01*
X0030745Y0157981D01*
X0031017Y0158584D01*
X0031390Y0159130D01*
X0031852Y0159603D01*
X0032390Y0159989D01*
X0032986Y0160276D01*
X0033623Y0160455D01*
X0034281Y0160520D01*
X0034939Y0160453D01*
X0035576Y0160272D01*
X0036171Y0159984D01*
X0036708Y0159597D01*
X0037169Y0159122D01*
X0037540Y0158575D01*
X0037811Y0157971D01*
X0037973Y0157330D01*
X0038021Y0156670D01*
X0038014Y0156772D02*
X0030539Y0156772D01*
X0030577Y0156274D02*
X0037978Y0156274D01*
X0037888Y0155775D02*
X0030670Y0155775D01*
X0030829Y0155277D02*
X0037730Y0155277D01*
X0037461Y0154778D02*
X0031101Y0154778D01*
X0031478Y0154280D02*
X0037087Y0154280D01*
X0036550Y0153781D02*
X0032017Y0153781D01*
X0032869Y0153283D02*
X0035698Y0153283D01*
X0026923Y0155950D02*
X0026705Y0155260D01*
X0026357Y0154626D01*
X0025892Y0154072D01*
X0025328Y0153619D01*
X0024686Y0153285D01*
X0023992Y0153083D01*
X0023271Y0153020D01*
X0022546Y0153081D01*
X0021848Y0153283D01*
X0021202Y0153617D01*
X0020633Y0154071D01*
X0020164Y0154627D01*
X0019813Y0155264D01*
X0019593Y0155957D01*
X0019512Y0156680D01*
X0019561Y0157340D01*
X0019725Y0157981D01*
X0019997Y0158584D01*
X0020370Y0159130D01*
X0020832Y0159603D01*
X0021370Y0159989D01*
X0021966Y0160276D01*
X0022603Y0160455D01*
X0023261Y0160520D01*
X0023919Y0160453D01*
X0024556Y0160272D01*
X0025151Y0159984D01*
X0025688Y0159597D01*
X0026149Y0159122D01*
X0026520Y0158575D01*
X0026791Y0157971D01*
X0026953Y0157330D01*
X0027001Y0156670D01*
X0026923Y0155950D01*
X0026867Y0155775D02*
X0019650Y0155775D01*
X0019557Y0156274D02*
X0026958Y0156274D01*
X0026994Y0156772D02*
X0019518Y0156772D01*
X0019556Y0157271D02*
X0026958Y0157271D01*
X0026842Y0157769D02*
X0019671Y0157769D01*
X0019854Y0158268D02*
X0026658Y0158268D01*
X0026390Y0158766D02*
X0020122Y0158766D01*
X0020502Y0159265D02*
X0026010Y0159265D01*
X0025457Y0159763D02*
X0021055Y0159763D01*
X0021937Y0160262D02*
X0024578Y0160262D01*
X0030691Y0157769D02*
X0037862Y0157769D01*
X0037978Y0157271D02*
X0030576Y0157271D01*
X0030875Y0158268D02*
X0037678Y0158268D01*
X0037410Y0158766D02*
X0031142Y0158766D01*
X0031522Y0159265D02*
X0037030Y0159265D01*
X0036477Y0159763D02*
X0032075Y0159763D01*
X0032957Y0160262D02*
X0035598Y0160262D01*
X0026710Y0155277D02*
X0019809Y0155277D01*
X0020081Y0154778D02*
X0026441Y0154778D01*
X0026067Y0154280D02*
X0020457Y0154280D01*
X0020997Y0153781D02*
X0025530Y0153781D01*
X0024678Y0153283D02*
X0021849Y0153283D01*
X0023271Y0173020D02*
X0023992Y0173083D01*
X0024686Y0173285D01*
X0025328Y0173619D01*
X0025892Y0174072D01*
X0026357Y0174626D01*
X0026705Y0175260D01*
X0026923Y0175950D01*
X0027001Y0176670D01*
X0026953Y0177330D01*
X0026791Y0177971D01*
X0026520Y0178575D01*
X0026149Y0179122D01*
X0025688Y0179597D01*
X0025151Y0179984D01*
X0024556Y0180272D01*
X0023919Y0180453D01*
X0023261Y0180520D01*
X0022603Y0180455D01*
X0021966Y0180276D01*
X0021370Y0179989D01*
X0020832Y0179603D01*
X0020370Y0179130D01*
X0019997Y0178584D01*
X0019725Y0177981D01*
X0019561Y0177340D01*
X0019512Y0176680D01*
X0019593Y0175957D01*
X0019813Y0175264D01*
X0020164Y0174627D01*
X0020633Y0174071D01*
X0021202Y0173617D01*
X0021848Y0173283D01*
X0022546Y0173081D01*
X0023271Y0173020D01*
X0024474Y0173223D02*
X0022056Y0173223D01*
X0021071Y0173722D02*
X0025456Y0173722D01*
X0026017Y0174220D02*
X0020508Y0174220D01*
X0020114Y0174719D02*
X0026408Y0174719D01*
X0026681Y0175217D02*
X0019839Y0175217D01*
X0019669Y0175716D02*
X0026849Y0175716D01*
X0026952Y0176214D02*
X0019564Y0176214D01*
X0019514Y0176713D02*
X0026998Y0176713D01*
X0026962Y0177211D02*
X0019552Y0177211D01*
X0019656Y0177710D02*
X0026857Y0177710D01*
X0026685Y0178208D02*
X0019828Y0178208D01*
X0020081Y0178707D02*
X0026431Y0178707D01*
X0026068Y0179205D02*
X0020444Y0179205D01*
X0020972Y0179704D02*
X0025540Y0179704D01*
X0024701Y0180202D02*
X0021813Y0180202D01*
X0030745Y0177981D02*
X0031017Y0178584D01*
X0031390Y0179130D01*
X0031852Y0179603D01*
X0032390Y0179989D01*
X0032986Y0180276D01*
X0033623Y0180455D01*
X0034281Y0180520D01*
X0034939Y0180453D01*
X0035576Y0180272D01*
X0036171Y0179984D01*
X0036708Y0179597D01*
X0037169Y0179122D01*
X0037540Y0178575D01*
X0037811Y0177971D01*
X0037973Y0177330D01*
X0038021Y0176670D01*
X0037943Y0175950D01*
X0037725Y0175260D01*
X0037377Y0174626D01*
X0036912Y0174072D01*
X0036348Y0173619D01*
X0035706Y0173285D01*
X0035012Y0173083D01*
X0034291Y0173020D01*
X0033566Y0173081D01*
X0032868Y0173283D01*
X0032222Y0173617D01*
X0031653Y0174071D01*
X0031184Y0174627D01*
X0030833Y0175264D01*
X0030613Y0175957D01*
X0030532Y0176680D01*
X0030581Y0177340D01*
X0030745Y0177981D01*
X0030848Y0178208D02*
X0037705Y0178208D01*
X0037877Y0177710D02*
X0030676Y0177710D01*
X0030572Y0177211D02*
X0037982Y0177211D01*
X0038018Y0176713D02*
X0030534Y0176713D01*
X0030584Y0176214D02*
X0037972Y0176214D01*
X0037869Y0175716D02*
X0030689Y0175716D01*
X0030859Y0175217D02*
X0037702Y0175217D01*
X0037428Y0174719D02*
X0031134Y0174719D01*
X0031528Y0174220D02*
X0037037Y0174220D01*
X0036476Y0173722D02*
X0032091Y0173722D01*
X0033076Y0173223D02*
X0035494Y0173223D01*
X0037451Y0178707D02*
X0031101Y0178707D01*
X0031464Y0179205D02*
X0037088Y0179205D01*
X0036560Y0179704D02*
X0031992Y0179704D01*
X0032833Y0180202D02*
X0035721Y0180202D01*
D17*
X0158791Y0226750D03*
X0168791Y0226750D03*
X0198791Y0226750D03*
X0218791Y0226750D03*
X0253791Y0226750D03*
X0263791Y0226750D03*
D18*
X0070484Y0019191D03*
X0070484Y0029191D03*
X0070484Y0039191D03*
X0124421Y0039191D03*
X0124421Y0029191D03*
X0124421Y0019191D03*
X0182295Y0019191D03*
X0182295Y0029191D03*
X0182295Y0039191D03*
X0244106Y0039191D03*
X0244106Y0029191D03*
X0244106Y0019191D03*
X0304854Y0019191D03*
X0304854Y0029191D03*
X0304854Y0039191D03*
X0361665Y0039191D03*
X0361665Y0029191D03*
X0361665Y0019191D03*
X0422413Y0019191D03*
X0422413Y0029191D03*
X0422413Y0039191D03*
X0479224Y0039191D03*
X0479224Y0029191D03*
X0479224Y0019191D03*
X0043791Y0126750D03*
X0033791Y0126750D03*
X0023791Y0126750D03*
D19*
X0110996Y0211750D03*
X0136586Y0211750D03*
D20*
X0123791Y0204250D03*
X0111291Y0224250D03*
X0078791Y0249250D03*
X0128791Y0264250D03*
X0161291Y0261750D03*
X0171291Y0264250D03*
X0181291Y0266750D03*
X0198791Y0261750D03*
X0208791Y0266750D03*
X0241291Y0259250D03*
X0281291Y0249250D03*
X0286291Y0239250D03*
X0298791Y0249250D03*
X0303791Y0259250D03*
X0286291Y0261750D03*
X0348791Y0254250D03*
X0358791Y0259250D03*
X0371291Y0264250D03*
X0376291Y0259250D03*
X0381291Y0254250D03*
X0358791Y0244250D03*
X0366291Y0234250D03*
X0408791Y0229250D03*
X0413791Y0249250D03*
X0418791Y0264250D03*
X0426291Y0264250D03*
X0373791Y0204250D03*
X0383791Y0194250D03*
X0411291Y0199250D03*
X0353791Y0159250D03*
X0321291Y0144250D03*
X0298791Y0149250D03*
X0298791Y0159250D03*
X0283791Y0169250D03*
X0268791Y0179250D03*
X0253791Y0174250D03*
X0238791Y0159250D03*
X0238791Y0149250D03*
X0223791Y0164250D03*
X0208791Y0159250D03*
X0203791Y0166750D03*
X0203791Y0174250D03*
X0183791Y0186750D03*
X0168791Y0204250D03*
X0178791Y0214250D03*
X0206291Y0221750D03*
X0201291Y0234250D03*
X0223791Y0204250D03*
X0236291Y0204250D03*
X0278791Y0221750D03*
X0291291Y0209250D03*
X0326291Y0204250D03*
X0311291Y0179250D03*
X0268791Y0144250D03*
X0283791Y0139250D03*
X0243791Y0099250D03*
X0291291Y0094250D03*
X0271291Y0049250D03*
X0206291Y0069250D03*
X0188791Y0079250D03*
X0158791Y0061750D03*
X0153791Y0034250D03*
X0168791Y0111750D03*
X0203791Y0139250D03*
X0183791Y0149250D03*
X0178791Y0144250D03*
X0123791Y0149250D03*
X0103791Y0141750D03*
X0103791Y0156750D03*
X0416291Y0154250D03*
X0486291Y0154250D03*
X0488791Y0139250D03*
M02*
