G75*
%MOIN*%
%OFA0B0*%
%FSLAX25Y25*%
%IPPOS*%
%LPD*%
%AMOC8*
5,1,8,0,0,1.08239X$1,22.5*
%
%ADD10C,0.05200*%
%ADD11C,0.17000*%
%ADD12C,0.07400*%
%ADD13C,0.06000*%
%ADD14C,0.06400*%
%ADD15C,0.08000*%
%ADD16C,0.06500*%
%ADD17C,0.06600*%
%ADD18C,0.07000*%
%ADD19C,0.02500*%
%ADD20C,0.04000*%
D10*
X0123791Y0129150D02*
X0123791Y0134350D01*
X0133791Y0134350D02*
X0133791Y0129150D01*
X0143791Y0129150D02*
X0143791Y0134350D01*
X0153791Y0134350D02*
X0153791Y0129150D01*
X0163791Y0129150D02*
X0163791Y0134350D01*
X0173791Y0134350D02*
X0173791Y0129150D01*
X0183791Y0129150D02*
X0183791Y0134350D01*
X0193791Y0134350D02*
X0193791Y0129150D01*
X0208791Y0129150D02*
X0208791Y0134350D01*
X0218791Y0134350D02*
X0218791Y0129150D01*
X0228791Y0129150D02*
X0228791Y0134350D01*
X0238791Y0134350D02*
X0238791Y0129150D01*
X0248791Y0129150D02*
X0248791Y0134350D01*
X0268791Y0134350D02*
X0268791Y0129150D01*
X0278791Y0129150D02*
X0278791Y0134350D01*
X0288791Y0134350D02*
X0288791Y0129150D01*
X0298791Y0129150D02*
X0298791Y0134350D01*
X0308791Y0134350D02*
X0308791Y0129150D01*
X0328791Y0129150D02*
X0328791Y0134350D01*
X0338791Y0134350D02*
X0338791Y0129150D01*
X0348791Y0129150D02*
X0348791Y0134350D01*
X0358791Y0134350D02*
X0358791Y0129150D01*
X0368791Y0129150D02*
X0368791Y0134350D01*
X0368791Y0189150D02*
X0368791Y0194350D01*
X0358791Y0194350D02*
X0358791Y0189150D01*
X0348791Y0189150D02*
X0348791Y0194350D01*
X0338791Y0194350D02*
X0338791Y0189150D01*
X0328791Y0189150D02*
X0328791Y0194350D01*
X0308791Y0194350D02*
X0308791Y0189150D01*
X0298791Y0189150D02*
X0298791Y0194350D01*
X0288791Y0194350D02*
X0288791Y0189150D01*
X0278791Y0189150D02*
X0278791Y0194350D01*
X0268791Y0194350D02*
X0268791Y0189150D01*
X0248791Y0189150D02*
X0248791Y0194350D01*
X0238791Y0194350D02*
X0238791Y0189150D01*
X0228791Y0189150D02*
X0228791Y0194350D01*
X0218791Y0194350D02*
X0218791Y0189150D01*
X0208791Y0189150D02*
X0208791Y0194350D01*
X0193791Y0164350D02*
X0193791Y0159150D01*
X0183791Y0159150D02*
X0183791Y0164350D01*
X0173791Y0164350D02*
X0173791Y0159150D01*
X0163791Y0159150D02*
X0163791Y0164350D01*
X0153791Y0164350D02*
X0153791Y0159150D01*
X0143791Y0159150D02*
X0143791Y0164350D01*
X0133791Y0164350D02*
X0133791Y0159150D01*
X0123791Y0159150D02*
X0123791Y0164350D01*
X0333791Y0214150D02*
X0333791Y0219350D01*
X0343791Y0219350D02*
X0343791Y0214150D01*
X0353791Y0214150D02*
X0353791Y0219350D01*
X0363791Y0219350D02*
X0363791Y0214150D01*
X0373791Y0214150D02*
X0373791Y0219350D01*
X0393791Y0219350D02*
X0393791Y0214150D01*
X0403791Y0214150D02*
X0403791Y0219350D01*
X0413791Y0219350D02*
X0413791Y0214150D01*
X0423791Y0214150D02*
X0423791Y0219350D01*
X0433791Y0219350D02*
X0433791Y0214150D01*
X0476191Y0211750D02*
X0481391Y0211750D01*
X0481391Y0221750D02*
X0476191Y0221750D01*
X0476191Y0231750D02*
X0481391Y0231750D01*
X0481391Y0241750D02*
X0476191Y0241750D01*
X0476191Y0251750D02*
X0481391Y0251750D01*
X0506191Y0251750D02*
X0511391Y0251750D01*
X0511391Y0241750D02*
X0506191Y0241750D01*
X0506191Y0231750D02*
X0511391Y0231750D01*
X0511391Y0221750D02*
X0506191Y0221750D01*
X0506191Y0211750D02*
X0511391Y0211750D01*
X0511391Y0201750D02*
X0506191Y0201750D01*
X0506191Y0191750D02*
X0511391Y0191750D01*
X0511391Y0181750D02*
X0506191Y0181750D01*
X0481391Y0181750D02*
X0476191Y0181750D01*
X0476191Y0191750D02*
X0481391Y0191750D01*
X0481391Y0201750D02*
X0476191Y0201750D01*
X0433791Y0274150D02*
X0433791Y0279350D01*
X0423791Y0279350D02*
X0423791Y0274150D01*
X0413791Y0274150D02*
X0413791Y0279350D01*
X0403791Y0279350D02*
X0403791Y0274150D01*
X0393791Y0274150D02*
X0393791Y0279350D01*
X0373791Y0279350D02*
X0373791Y0274150D01*
X0363791Y0274150D02*
X0363791Y0279350D01*
X0353791Y0279350D02*
X0353791Y0274150D01*
X0343791Y0274150D02*
X0343791Y0279350D01*
X0333791Y0279350D02*
X0333791Y0274150D01*
D11*
X0062728Y0211750D03*
X0039106Y0211750D03*
X0050917Y0193246D03*
D12*
X0048791Y0246750D03*
X0018791Y0246750D03*
X0228791Y0114250D03*
X0223791Y0106750D03*
X0233791Y0106750D03*
X0244145Y0084427D03*
X0244145Y0074427D03*
X0263830Y0082616D03*
X0303201Y0084427D03*
X0303201Y0074427D03*
X0322886Y0082616D03*
X0343791Y0106750D03*
X0353791Y0106750D03*
X0348791Y0114250D03*
X0362256Y0084427D03*
X0362256Y0074427D03*
X0381941Y0082616D03*
X0421311Y0084427D03*
X0421311Y0074427D03*
X0440996Y0082616D03*
X0480366Y0084427D03*
X0480366Y0074427D03*
X0500051Y0082616D03*
X0500051Y0052616D03*
X0440996Y0052616D03*
X0381941Y0052616D03*
X0322886Y0052616D03*
X0263830Y0052616D03*
X0200838Y0052616D03*
X0181153Y0074427D03*
X0181153Y0084427D03*
X0200838Y0082616D03*
X0143983Y0082616D03*
X0126035Y0084427D03*
X0126035Y0074427D03*
X0143983Y0052616D03*
X0088365Y0052616D03*
X0070917Y0074427D03*
X0088365Y0082616D03*
X0070917Y0084427D03*
X0283791Y0106750D03*
X0293791Y0106750D03*
X0288791Y0114250D03*
X0408791Y0181750D03*
X0418791Y0181750D03*
X0413791Y0189250D03*
X0308791Y0266750D03*
X0303791Y0274250D03*
X0298791Y0266750D03*
D13*
X0098791Y0119750D02*
X0098791Y0113750D01*
X0088791Y0113750D02*
X0088791Y0119750D01*
X0078791Y0119750D02*
X0078791Y0113750D01*
D14*
X0133791Y0246750D03*
X0143791Y0246750D03*
X0153791Y0246750D03*
X0163791Y0246750D03*
X0173791Y0246750D03*
X0183791Y0246750D03*
X0193791Y0246750D03*
X0203791Y0246750D03*
X0213791Y0246750D03*
X0223791Y0246750D03*
X0233791Y0246750D03*
X0243791Y0246750D03*
X0253791Y0246750D03*
X0263791Y0246750D03*
X0263791Y0276750D03*
X0253791Y0276750D03*
X0243791Y0276750D03*
X0233791Y0276750D03*
X0223791Y0276750D03*
X0213791Y0276750D03*
X0203791Y0276750D03*
X0193791Y0276750D03*
X0183791Y0276750D03*
X0173791Y0276750D03*
X0163791Y0276750D03*
X0153791Y0276750D03*
X0143791Y0276750D03*
X0133791Y0276750D03*
X0088791Y0271750D03*
X0078791Y0271750D03*
X0068791Y0271750D03*
X0068791Y0261750D03*
X0078791Y0261750D03*
X0088791Y0261750D03*
X0408791Y0161750D03*
X0418791Y0161750D03*
X0428791Y0161750D03*
X0438791Y0161750D03*
X0448791Y0161750D03*
X0458791Y0161750D03*
X0468791Y0161750D03*
X0478791Y0161750D03*
X0478791Y0131750D03*
X0468791Y0131750D03*
X0458791Y0131750D03*
X0448791Y0131750D03*
X0438791Y0131750D03*
X0428791Y0131750D03*
X0418791Y0131750D03*
X0408791Y0131750D03*
D15*
X0034291Y0156750D03*
X0023291Y0156750D03*
X0023291Y0176750D03*
X0034291Y0176750D03*
D16*
X0158791Y0226750D03*
X0168791Y0226750D03*
X0198791Y0226750D03*
X0218791Y0226750D03*
X0253791Y0226750D03*
X0263791Y0226750D03*
D17*
X0070484Y0019191D03*
X0070484Y0029191D03*
X0070484Y0039191D03*
X0124421Y0039191D03*
X0124421Y0029191D03*
X0124421Y0019191D03*
X0182295Y0019191D03*
X0182295Y0029191D03*
X0182295Y0039191D03*
X0244106Y0039191D03*
X0244106Y0029191D03*
X0244106Y0019191D03*
X0304854Y0019191D03*
X0304854Y0029191D03*
X0304854Y0039191D03*
X0361665Y0039191D03*
X0361665Y0029191D03*
X0361665Y0019191D03*
X0422413Y0019191D03*
X0422413Y0029191D03*
X0422413Y0039191D03*
X0479224Y0039191D03*
X0479224Y0029191D03*
X0479224Y0019191D03*
X0043791Y0126750D03*
X0033791Y0126750D03*
X0023791Y0126750D03*
D18*
X0110996Y0211750D03*
X0136586Y0211750D03*
D19*
X0138791Y0211750D01*
X0141291Y0209250D01*
X0218791Y0209250D01*
X0223791Y0204250D01*
X0211291Y0199250D02*
X0271291Y0199250D01*
X0331291Y0199250D01*
X0338791Y0191750D01*
X0338791Y0199250D02*
X0316291Y0221750D01*
X0278791Y0221750D01*
X0263791Y0226750D02*
X0256291Y0219250D01*
X0206291Y0219250D01*
X0206291Y0221750D01*
X0206291Y0219250D02*
X0151291Y0219250D01*
X0118791Y0219250D01*
X0111291Y0211750D01*
X0110996Y0211750D01*
X0108791Y0211750D01*
X0096291Y0199250D01*
X0056291Y0199250D01*
X0051291Y0194250D01*
X0050917Y0193246D01*
X0036291Y0224250D02*
X0016291Y0204250D01*
X0016291Y0094250D01*
X0291291Y0094250D01*
X0286291Y0099250D02*
X0251291Y0099250D01*
X0243791Y0106750D01*
X0233791Y0106750D01*
X0243791Y0099250D02*
X0181291Y0099250D01*
X0168791Y0111750D01*
X0171291Y0124250D02*
X0186291Y0124250D01*
X0193791Y0131750D01*
X0208791Y0131750D02*
X0208791Y0139250D01*
X0213791Y0144250D01*
X0268791Y0144250D01*
X0321291Y0144250D01*
X0341291Y0149250D02*
X0298791Y0149250D01*
X0238791Y0149250D01*
X0183791Y0149250D01*
X0178791Y0144250D02*
X0173791Y0149250D01*
X0123791Y0149250D01*
X0116291Y0144250D02*
X0171291Y0144250D01*
X0176291Y0139250D01*
X0203791Y0139250D01*
X0213791Y0136750D02*
X0216291Y0139250D01*
X0283791Y0139250D01*
X0278791Y0131750D02*
X0271291Y0124250D01*
X0331291Y0124250D01*
X0338791Y0131750D01*
X0341291Y0149250D02*
X0358791Y0131750D01*
X0366291Y0154250D02*
X0356291Y0164250D01*
X0223791Y0164250D01*
X0233791Y0154250D02*
X0238791Y0159250D01*
X0298791Y0159250D01*
X0353791Y0159250D01*
X0366291Y0154250D02*
X0416291Y0154250D01*
X0418791Y0161750D02*
X0431291Y0149250D01*
X0481291Y0149250D01*
X0486291Y0154250D01*
X0486291Y0161750D02*
X0478791Y0154250D01*
X0466291Y0154250D01*
X0458791Y0161750D01*
X0461291Y0169250D02*
X0468791Y0161750D01*
X0461291Y0169250D02*
X0416291Y0169250D01*
X0408791Y0161750D01*
X0421291Y0144250D02*
X0408791Y0131750D01*
X0418791Y0131750D02*
X0426291Y0124250D01*
X0516291Y0124250D01*
X0516291Y0184250D01*
X0508791Y0191750D01*
X0508791Y0201750D02*
X0488791Y0181750D01*
X0478791Y0181750D01*
X0486291Y0174250D02*
X0313791Y0174250D01*
X0308791Y0169250D01*
X0283791Y0169250D01*
X0206291Y0169250D01*
X0203791Y0166750D01*
X0206291Y0161750D02*
X0193791Y0161750D01*
X0183791Y0161750D02*
X0196291Y0174250D01*
X0203791Y0174250D01*
X0191291Y0179250D02*
X0268791Y0179250D01*
X0261291Y0184250D02*
X0321291Y0184250D01*
X0328791Y0191750D01*
X0338791Y0199250D02*
X0378791Y0199250D01*
X0383791Y0194250D01*
X0373791Y0204250D02*
X0421291Y0204250D01*
X0423791Y0206750D01*
X0423791Y0209250D01*
X0456291Y0209250D01*
X0478791Y0231750D01*
X0486291Y0229250D02*
X0486291Y0259250D01*
X0428791Y0259250D01*
X0433791Y0264250D01*
X0433791Y0276750D01*
X0421291Y0269250D02*
X0386291Y0269250D01*
X0393791Y0276750D01*
X0386291Y0269250D02*
X0341291Y0269250D01*
X0333791Y0276750D01*
X0346291Y0259250D02*
X0358791Y0259250D01*
X0348791Y0254250D02*
X0381291Y0254250D01*
X0376291Y0259250D02*
X0428791Y0259250D01*
X0426291Y0264250D02*
X0421291Y0269250D01*
X0418791Y0264250D02*
X0371291Y0264250D01*
X0346291Y0259250D02*
X0341291Y0254250D01*
X0286291Y0254250D01*
X0276291Y0264250D01*
X0231291Y0264250D01*
X0223791Y0256750D01*
X0123791Y0256750D01*
X0123791Y0266750D01*
X0126291Y0269250D01*
X0136291Y0269250D01*
X0143791Y0276750D01*
X0156291Y0264250D02*
X0161291Y0269250D01*
X0176291Y0269250D01*
X0183791Y0276750D01*
X0181291Y0266750D02*
X0208791Y0266750D01*
X0213791Y0264250D02*
X0211291Y0261750D01*
X0198791Y0261750D01*
X0213791Y0264250D02*
X0213791Y0276750D01*
X0223791Y0276750D02*
X0231291Y0269250D01*
X0278791Y0269250D01*
X0286291Y0261750D01*
X0291291Y0259250D02*
X0303791Y0259250D01*
X0298791Y0249250D02*
X0413791Y0249250D01*
X0398791Y0239250D02*
X0286291Y0239250D01*
X0163791Y0239250D01*
X0153791Y0229250D01*
X0011291Y0229250D01*
X0011291Y0249250D01*
X0041291Y0279250D01*
X0071291Y0279250D01*
X0078791Y0271750D01*
X0068791Y0271750D02*
X0051291Y0254250D01*
X0103791Y0254250D01*
X0106291Y0251750D01*
X0128791Y0251750D01*
X0133791Y0246750D01*
X0161291Y0261750D02*
X0163791Y0264250D01*
X0171291Y0264250D01*
X0156291Y0264250D02*
X0128791Y0264250D01*
X0078791Y0249250D02*
X0076291Y0246750D01*
X0048791Y0246750D01*
X0051291Y0254250D02*
X0026291Y0254250D01*
X0018791Y0246750D01*
X0036291Y0224250D02*
X0111291Y0224250D01*
X0123791Y0204250D02*
X0168791Y0204250D01*
X0178791Y0214250D02*
X0316291Y0214250D01*
X0326291Y0204250D01*
X0333791Y0216750D02*
X0341291Y0224250D01*
X0386291Y0224250D01*
X0411291Y0224250D01*
X0441291Y0254250D01*
X0476291Y0254250D01*
X0478791Y0251750D01*
X0478791Y0241750D02*
X0466291Y0229250D01*
X0426291Y0229250D01*
X0418791Y0221750D01*
X0418791Y0209250D01*
X0396291Y0209250D01*
X0403791Y0216750D01*
X0393791Y0216750D02*
X0386291Y0224250D01*
X0366291Y0234250D02*
X0201291Y0234250D01*
X0198791Y0226750D02*
X0168791Y0226750D01*
X0158791Y0226750D02*
X0151291Y0219250D01*
X0118791Y0199250D02*
X0211291Y0199250D01*
X0218791Y0191750D01*
X0216291Y0184250D02*
X0208791Y0191750D01*
X0173791Y0191750D01*
X0143791Y0161750D01*
X0133791Y0161750D02*
X0133791Y0189250D01*
X0121291Y0189250D01*
X0118791Y0191750D01*
X0118791Y0199250D01*
X0123791Y0161750D02*
X0101291Y0161750D01*
X0096291Y0156750D01*
X0113791Y0139250D01*
X0136291Y0139250D01*
X0143791Y0131750D01*
X0153791Y0131750D01*
X0163791Y0131750D02*
X0171291Y0124250D01*
X0206291Y0119250D02*
X0213791Y0126750D01*
X0213791Y0136750D01*
X0218791Y0131750D02*
X0226291Y0124250D01*
X0271291Y0124250D01*
X0293791Y0106750D02*
X0286291Y0099250D01*
X0293791Y0106750D02*
X0301291Y0099250D01*
X0346291Y0099250D01*
X0353791Y0106750D01*
X0408791Y0061750D02*
X0421291Y0074250D01*
X0421311Y0074427D01*
X0408791Y0061750D02*
X0158791Y0061750D01*
X0146291Y0066750D02*
X0138791Y0074250D01*
X0126291Y0074250D01*
X0126035Y0074427D01*
X0138791Y0066750D02*
X0078791Y0066750D01*
X0071291Y0074250D01*
X0070917Y0074427D01*
X0088791Y0054250D02*
X0088365Y0052616D01*
X0088791Y0054250D02*
X0143791Y0054250D01*
X0143983Y0052616D01*
X0138791Y0066750D02*
X0158791Y0046750D01*
X0268791Y0046750D01*
X0271291Y0049250D01*
X0266291Y0054250D02*
X0263830Y0052616D01*
X0266291Y0054250D02*
X0321291Y0054250D01*
X0322886Y0052616D01*
X0306291Y0039250D02*
X0304854Y0039191D01*
X0303791Y0039250D01*
X0246291Y0039250D01*
X0244106Y0039191D01*
X0243791Y0039250D01*
X0183791Y0039250D01*
X0182295Y0039191D01*
X0181291Y0039250D01*
X0126291Y0039250D01*
X0124421Y0039191D01*
X0123791Y0039250D01*
X0071291Y0039250D01*
X0070484Y0039191D01*
X0146291Y0066750D02*
X0203791Y0066750D01*
X0206291Y0069250D01*
X0191291Y0076750D02*
X0243791Y0076750D01*
X0244145Y0074427D01*
X0200838Y0082616D02*
X0198791Y0084250D01*
X0181291Y0084250D01*
X0181153Y0084427D01*
X0188791Y0079250D02*
X0191291Y0076750D01*
X0206291Y0119250D02*
X0126291Y0119250D01*
X0103791Y0141750D01*
X0116291Y0144250D02*
X0103791Y0156750D01*
X0096291Y0156750D02*
X0073791Y0134250D01*
X0041291Y0134250D01*
X0033791Y0126750D01*
X0043791Y0126750D02*
X0098791Y0126750D01*
X0098791Y0116750D01*
X0153791Y0161750D02*
X0161291Y0154250D01*
X0233791Y0154250D01*
X0208791Y0159250D02*
X0206291Y0161750D01*
X0191291Y0179250D02*
X0183791Y0186750D01*
X0216291Y0184250D02*
X0261291Y0184250D01*
X0268791Y0191750D01*
X0271291Y0199250D02*
X0278791Y0191750D01*
X0286291Y0204250D02*
X0236291Y0204250D01*
X0218791Y0226750D02*
X0253791Y0226750D01*
X0266291Y0244250D02*
X0358791Y0244250D01*
X0398791Y0239250D02*
X0408791Y0229250D01*
X0423791Y0216750D02*
X0423791Y0209250D01*
X0411291Y0199250D02*
X0471291Y0199250D01*
X0478791Y0191750D01*
X0486291Y0174250D02*
X0486291Y0161750D01*
X0508791Y0144250D02*
X0421291Y0144250D01*
X0428791Y0131750D02*
X0436291Y0139250D01*
X0488791Y0139250D01*
X0508791Y0144250D02*
X0508791Y0181750D01*
X0508791Y0221750D02*
X0501291Y0229250D01*
X0501291Y0251750D01*
X0508791Y0251750D01*
X0486291Y0229250D02*
X0478791Y0221750D01*
X0396291Y0209250D02*
X0351291Y0209250D01*
X0343791Y0216750D01*
X0368791Y0191750D02*
X0356291Y0179250D01*
X0311291Y0179250D01*
X0306291Y0174250D01*
X0253791Y0174250D01*
X0286291Y0204250D02*
X0291291Y0209250D01*
X0266291Y0244250D02*
X0263791Y0246750D01*
X0271291Y0259250D02*
X0281291Y0249250D01*
X0271291Y0259250D02*
X0241291Y0259250D01*
X0263791Y0276750D02*
X0266291Y0279250D01*
X0283791Y0279250D01*
X0291291Y0271750D01*
X0291291Y0259250D01*
X0383791Y0054250D02*
X0381941Y0052616D01*
X0383791Y0054250D02*
X0438791Y0054250D01*
X0440996Y0052616D01*
X0441291Y0054250D01*
X0498791Y0054250D01*
X0500051Y0052616D01*
X0479224Y0039191D02*
X0478791Y0039250D01*
X0423791Y0039250D01*
X0422413Y0039191D01*
X0421291Y0039250D01*
X0363791Y0039250D01*
X0361665Y0039191D01*
X0361291Y0039250D01*
X0306291Y0039250D01*
X0306291Y0019250D02*
X0304854Y0019191D01*
X0306291Y0019250D02*
X0361291Y0019250D01*
X0361665Y0019191D01*
X0431291Y0011750D02*
X0448791Y0029250D01*
X0478791Y0029250D01*
X0479224Y0029191D01*
X0431291Y0011750D02*
X0176291Y0011750D01*
X0153791Y0034250D01*
D20*
X0153791Y0034250D03*
X0158791Y0061750D03*
X0188791Y0079250D03*
X0206291Y0069250D03*
X0243791Y0099250D03*
X0291291Y0094250D03*
X0283791Y0139250D03*
X0268791Y0144250D03*
X0238791Y0149250D03*
X0238791Y0159250D03*
X0223791Y0164250D03*
X0208791Y0159250D03*
X0203791Y0166750D03*
X0203791Y0174250D03*
X0183791Y0186750D03*
X0168791Y0204250D03*
X0178791Y0214250D03*
X0206291Y0221750D03*
X0201291Y0234250D03*
X0241291Y0259250D03*
X0208791Y0266750D03*
X0198791Y0261750D03*
X0181291Y0266750D03*
X0171291Y0264250D03*
X0161291Y0261750D03*
X0128791Y0264250D03*
X0078791Y0249250D03*
X0111291Y0224250D03*
X0123791Y0204250D03*
X0103791Y0156750D03*
X0123791Y0149250D03*
X0103791Y0141750D03*
X0168791Y0111750D03*
X0203791Y0139250D03*
X0183791Y0149250D03*
X0178791Y0144250D03*
X0253791Y0174250D03*
X0268791Y0179250D03*
X0283791Y0169250D03*
X0298791Y0159250D03*
X0298791Y0149250D03*
X0321291Y0144250D03*
X0353791Y0159250D03*
X0311291Y0179250D03*
X0326291Y0204250D03*
X0291291Y0209250D03*
X0278791Y0221750D03*
X0286291Y0239250D03*
X0281291Y0249250D03*
X0286291Y0261750D03*
X0298791Y0249250D03*
X0303791Y0259250D03*
X0348791Y0254250D03*
X0358791Y0259250D03*
X0371291Y0264250D03*
X0376291Y0259250D03*
X0381291Y0254250D03*
X0358791Y0244250D03*
X0366291Y0234250D03*
X0408791Y0229250D03*
X0413791Y0249250D03*
X0418791Y0264250D03*
X0426291Y0264250D03*
X0373791Y0204250D03*
X0383791Y0194250D03*
X0411291Y0199250D03*
X0416291Y0154250D03*
X0486291Y0154250D03*
X0488791Y0139250D03*
X0271291Y0049250D03*
X0236291Y0204250D03*
X0223791Y0204250D03*
M02*
