G75*
%MOIN*%
%OFA0B0*%
%FSLAX25Y25*%
%IPPOS*%
%LPD*%
%AMOC8*
5,1,8,0,0,1.08239X$1,22.5*
%
%ADD10C,0.06000*%
%ADD11C,0.17800*%
%ADD12C,0.08200*%
%ADD13C,0.06800*%
%ADD14C,0.13800*%
%ADD15C,0.07200*%
%ADD16C,0.00500*%
%ADD17C,0.07300*%
%ADD18C,0.07400*%
%ADD19C,0.07800*%
%ADD20C,0.04800*%
D10*
X0123791Y0129150D02*
X0123791Y0134350D01*
X0133791Y0134350D02*
X0133791Y0129150D01*
X0143791Y0129150D02*
X0143791Y0134350D01*
X0153791Y0134350D02*
X0153791Y0129150D01*
X0163791Y0129150D02*
X0163791Y0134350D01*
X0173791Y0134350D02*
X0173791Y0129150D01*
X0183791Y0129150D02*
X0183791Y0134350D01*
X0193791Y0134350D02*
X0193791Y0129150D01*
X0208791Y0129150D02*
X0208791Y0134350D01*
X0218791Y0134350D02*
X0218791Y0129150D01*
X0228791Y0129150D02*
X0228791Y0134350D01*
X0238791Y0134350D02*
X0238791Y0129150D01*
X0248791Y0129150D02*
X0248791Y0134350D01*
X0268791Y0134350D02*
X0268791Y0129150D01*
X0278791Y0129150D02*
X0278791Y0134350D01*
X0288791Y0134350D02*
X0288791Y0129150D01*
X0298791Y0129150D02*
X0298791Y0134350D01*
X0308791Y0134350D02*
X0308791Y0129150D01*
X0328791Y0129150D02*
X0328791Y0134350D01*
X0338791Y0134350D02*
X0338791Y0129150D01*
X0348791Y0129150D02*
X0348791Y0134350D01*
X0358791Y0134350D02*
X0358791Y0129150D01*
X0368791Y0129150D02*
X0368791Y0134350D01*
X0368791Y0189150D02*
X0368791Y0194350D01*
X0358791Y0194350D02*
X0358791Y0189150D01*
X0348791Y0189150D02*
X0348791Y0194350D01*
X0338791Y0194350D02*
X0338791Y0189150D01*
X0328791Y0189150D02*
X0328791Y0194350D01*
X0308791Y0194350D02*
X0308791Y0189150D01*
X0298791Y0189150D02*
X0298791Y0194350D01*
X0288791Y0194350D02*
X0288791Y0189150D01*
X0278791Y0189150D02*
X0278791Y0194350D01*
X0268791Y0194350D02*
X0268791Y0189150D01*
X0248791Y0189150D02*
X0248791Y0194350D01*
X0238791Y0194350D02*
X0238791Y0189150D01*
X0228791Y0189150D02*
X0228791Y0194350D01*
X0218791Y0194350D02*
X0218791Y0189150D01*
X0208791Y0189150D02*
X0208791Y0194350D01*
X0193791Y0164350D02*
X0193791Y0159150D01*
X0183791Y0159150D02*
X0183791Y0164350D01*
X0173791Y0164350D02*
X0173791Y0159150D01*
X0163791Y0159150D02*
X0163791Y0164350D01*
X0153791Y0164350D02*
X0153791Y0159150D01*
X0143791Y0159150D02*
X0143791Y0164350D01*
X0133791Y0164350D02*
X0133791Y0159150D01*
X0123791Y0159150D02*
X0123791Y0164350D01*
X0333791Y0214150D02*
X0333791Y0219350D01*
X0343791Y0219350D02*
X0343791Y0214150D01*
X0353791Y0214150D02*
X0353791Y0219350D01*
X0363791Y0219350D02*
X0363791Y0214150D01*
X0373791Y0214150D02*
X0373791Y0219350D01*
X0393791Y0219350D02*
X0393791Y0214150D01*
X0403791Y0214150D02*
X0403791Y0219350D01*
X0413791Y0219350D02*
X0413791Y0214150D01*
X0423791Y0214150D02*
X0423791Y0219350D01*
X0433791Y0219350D02*
X0433791Y0214150D01*
X0476191Y0211750D02*
X0481391Y0211750D01*
X0481391Y0221750D02*
X0476191Y0221750D01*
X0476191Y0231750D02*
X0481391Y0231750D01*
X0481391Y0241750D02*
X0476191Y0241750D01*
X0476191Y0251750D02*
X0481391Y0251750D01*
X0506191Y0251750D02*
X0511391Y0251750D01*
X0511391Y0241750D02*
X0506191Y0241750D01*
X0506191Y0231750D02*
X0511391Y0231750D01*
X0511391Y0221750D02*
X0506191Y0221750D01*
X0506191Y0211750D02*
X0511391Y0211750D01*
X0511391Y0201750D02*
X0506191Y0201750D01*
X0506191Y0191750D02*
X0511391Y0191750D01*
X0511391Y0181750D02*
X0506191Y0181750D01*
X0481391Y0181750D02*
X0476191Y0181750D01*
X0476191Y0191750D02*
X0481391Y0191750D01*
X0481391Y0201750D02*
X0476191Y0201750D01*
X0433791Y0274150D02*
X0433791Y0279350D01*
X0423791Y0279350D02*
X0423791Y0274150D01*
X0413791Y0274150D02*
X0413791Y0279350D01*
X0403791Y0279350D02*
X0403791Y0274150D01*
X0393791Y0274150D02*
X0393791Y0279350D01*
X0373791Y0279350D02*
X0373791Y0274150D01*
X0363791Y0274150D02*
X0363791Y0279350D01*
X0353791Y0279350D02*
X0353791Y0274150D01*
X0343791Y0274150D02*
X0343791Y0279350D01*
X0333791Y0279350D02*
X0333791Y0274150D01*
D11*
X0062728Y0211750D03*
X0039106Y0211750D03*
X0050917Y0193246D03*
D12*
X0048791Y0246750D03*
X0018791Y0246750D03*
X0228791Y0114250D03*
X0223791Y0106750D03*
X0233791Y0106750D03*
X0244145Y0084427D03*
X0244145Y0074427D03*
X0263830Y0082616D03*
X0303201Y0084427D03*
X0303201Y0074427D03*
X0322886Y0082616D03*
X0343791Y0106750D03*
X0353791Y0106750D03*
X0348791Y0114250D03*
X0362256Y0084427D03*
X0362256Y0074427D03*
X0381941Y0082616D03*
X0421311Y0084427D03*
X0421311Y0074427D03*
X0440996Y0082616D03*
X0480366Y0084427D03*
X0480366Y0074427D03*
X0500051Y0082616D03*
X0500051Y0052616D03*
X0440996Y0052616D03*
X0381941Y0052616D03*
X0322886Y0052616D03*
X0263830Y0052616D03*
X0200838Y0052616D03*
X0181153Y0074427D03*
X0181153Y0084427D03*
X0200838Y0082616D03*
X0143983Y0082616D03*
X0126035Y0084427D03*
X0126035Y0074427D03*
X0143983Y0052616D03*
X0088365Y0052616D03*
X0070917Y0074427D03*
X0088365Y0082616D03*
X0070917Y0084427D03*
X0283791Y0106750D03*
X0293791Y0106750D03*
X0288791Y0114250D03*
X0408791Y0181750D03*
X0418791Y0181750D03*
X0413791Y0189250D03*
X0308791Y0266750D03*
X0303791Y0274250D03*
X0298791Y0266750D03*
D13*
X0098791Y0119750D02*
X0098791Y0113750D01*
X0088791Y0113750D02*
X0088791Y0119750D01*
X0078791Y0119750D02*
X0078791Y0113750D01*
D14*
X0088791Y0175750D03*
D15*
X0133791Y0246750D03*
X0143791Y0246750D03*
X0153791Y0246750D03*
X0163791Y0246750D03*
X0173791Y0246750D03*
X0183791Y0246750D03*
X0193791Y0246750D03*
X0203791Y0246750D03*
X0213791Y0246750D03*
X0223791Y0246750D03*
X0233791Y0246750D03*
X0243791Y0246750D03*
X0253791Y0246750D03*
X0263791Y0246750D03*
X0263791Y0276750D03*
X0253791Y0276750D03*
X0243791Y0276750D03*
X0233791Y0276750D03*
X0223791Y0276750D03*
X0213791Y0276750D03*
X0203791Y0276750D03*
X0193791Y0276750D03*
X0183791Y0276750D03*
X0173791Y0276750D03*
X0163791Y0276750D03*
X0153791Y0276750D03*
X0143791Y0276750D03*
X0133791Y0276750D03*
X0088791Y0271750D03*
X0078791Y0271750D03*
X0068791Y0271750D03*
X0068791Y0261750D03*
X0078791Y0261750D03*
X0088791Y0261750D03*
X0408791Y0161750D03*
X0418791Y0161750D03*
X0428791Y0161750D03*
X0438791Y0161750D03*
X0448791Y0161750D03*
X0458791Y0161750D03*
X0468791Y0161750D03*
X0478791Y0161750D03*
X0478791Y0131750D03*
X0468791Y0131750D03*
X0458791Y0131750D03*
X0448791Y0131750D03*
X0438791Y0131750D03*
X0428791Y0131750D03*
X0418791Y0131750D03*
X0408791Y0131750D03*
D16*
X0036021Y0156730D02*
X0035974Y0156346D01*
X0035844Y0155983D01*
X0035636Y0155658D01*
X0035360Y0155387D01*
X0035031Y0155184D01*
X0034665Y0155060D01*
X0034281Y0155020D01*
X0033900Y0155054D01*
X0033535Y0155172D01*
X0033206Y0155368D01*
X0032929Y0155632D01*
X0032718Y0155952D01*
X0032583Y0156310D01*
X0032531Y0156690D01*
X0032566Y0157090D01*
X0032690Y0157473D01*
X0032895Y0157819D01*
X0033172Y0158110D01*
X0033507Y0158332D01*
X0033883Y0158475D01*
X0034281Y0158530D01*
X0034674Y0158478D01*
X0035046Y0158341D01*
X0035378Y0158125D01*
X0035654Y0157840D01*
X0035859Y0157501D01*
X0035983Y0157124D01*
X0036021Y0156730D01*
X0036017Y0156772D02*
X0032538Y0156772D01*
X0032597Y0156274D02*
X0035948Y0156274D01*
X0035711Y0155775D02*
X0032835Y0155775D01*
X0033359Y0155277D02*
X0035181Y0155277D01*
X0035935Y0157271D02*
X0032624Y0157271D01*
X0032865Y0157769D02*
X0035696Y0157769D01*
X0035159Y0158268D02*
X0033410Y0158268D01*
X0024963Y0157124D02*
X0025001Y0156730D01*
X0024954Y0156346D01*
X0024824Y0155983D01*
X0024615Y0155658D01*
X0024340Y0155387D01*
X0024011Y0155184D01*
X0023645Y0155060D01*
X0023261Y0155020D01*
X0022880Y0155054D01*
X0022515Y0155172D01*
X0022186Y0155368D01*
X0021909Y0155632D01*
X0021698Y0155952D01*
X0021563Y0156310D01*
X0021511Y0156690D01*
X0021546Y0157090D01*
X0021669Y0157473D01*
X0021875Y0157819D01*
X0022152Y0158110D01*
X0022487Y0158332D01*
X0022863Y0158475D01*
X0023261Y0158530D01*
X0023654Y0158478D01*
X0024026Y0158341D01*
X0024358Y0158125D01*
X0024633Y0157840D01*
X0024839Y0157501D01*
X0024963Y0157124D01*
X0024915Y0157271D02*
X0021604Y0157271D01*
X0021518Y0156772D02*
X0024997Y0156772D01*
X0024928Y0156274D02*
X0021577Y0156274D01*
X0021815Y0155775D02*
X0024691Y0155775D01*
X0024161Y0155277D02*
X0022339Y0155277D01*
X0021845Y0157769D02*
X0024676Y0157769D01*
X0024139Y0158268D02*
X0022389Y0158268D01*
X0023261Y0175020D02*
X0023645Y0175060D01*
X0024011Y0175184D01*
X0024340Y0175387D01*
X0024615Y0175658D01*
X0024824Y0175983D01*
X0024954Y0176346D01*
X0025001Y0176730D01*
X0024963Y0177124D01*
X0024839Y0177501D01*
X0024633Y0177840D01*
X0024358Y0178125D01*
X0024026Y0178341D01*
X0023654Y0178478D01*
X0023261Y0178530D01*
X0022863Y0178475D01*
X0022487Y0178332D01*
X0022152Y0178110D01*
X0021875Y0177819D01*
X0021669Y0177473D01*
X0021546Y0177090D01*
X0021511Y0176690D01*
X0021563Y0176310D01*
X0021698Y0175952D01*
X0021909Y0175632D01*
X0022186Y0175368D01*
X0022515Y0175172D01*
X0022880Y0175054D01*
X0023261Y0175020D01*
X0024065Y0175217D02*
X0022439Y0175217D01*
X0021854Y0175716D02*
X0024653Y0175716D01*
X0024907Y0176214D02*
X0021599Y0176214D01*
X0021513Y0176713D02*
X0024999Y0176713D01*
X0024935Y0177211D02*
X0021585Y0177211D01*
X0021810Y0177710D02*
X0024712Y0177710D01*
X0024230Y0178208D02*
X0022300Y0178208D01*
X0032566Y0177090D02*
X0032531Y0176690D01*
X0032583Y0176310D01*
X0032718Y0175952D01*
X0032929Y0175632D01*
X0033206Y0175368D01*
X0033535Y0175172D01*
X0033900Y0175054D01*
X0034281Y0175020D01*
X0034665Y0175060D01*
X0035031Y0175184D01*
X0035360Y0175387D01*
X0035636Y0175658D01*
X0035844Y0175983D01*
X0035974Y0176346D01*
X0036021Y0176730D01*
X0035983Y0177124D01*
X0035859Y0177501D01*
X0035654Y0177840D01*
X0035378Y0178125D01*
X0035046Y0178341D01*
X0034674Y0178478D01*
X0034281Y0178530D01*
X0033883Y0178475D01*
X0033507Y0178332D01*
X0033172Y0178110D01*
X0032895Y0177819D01*
X0032690Y0177473D01*
X0032566Y0177090D01*
X0032605Y0177211D02*
X0035955Y0177211D01*
X0036019Y0176713D02*
X0032533Y0176713D01*
X0032619Y0176214D02*
X0035927Y0176214D01*
X0035673Y0175716D02*
X0032874Y0175716D01*
X0033459Y0175217D02*
X0035085Y0175217D01*
X0035732Y0177710D02*
X0032830Y0177710D01*
X0033320Y0178208D02*
X0035250Y0178208D01*
D17*
X0158791Y0226750D03*
X0168791Y0226750D03*
X0198791Y0226750D03*
X0218791Y0226750D03*
X0253791Y0226750D03*
X0263791Y0226750D03*
D18*
X0070484Y0019191D03*
X0070484Y0029191D03*
X0070484Y0039191D03*
X0124421Y0039191D03*
X0124421Y0029191D03*
X0124421Y0019191D03*
X0182295Y0019191D03*
X0182295Y0029191D03*
X0182295Y0039191D03*
X0244106Y0039191D03*
X0244106Y0029191D03*
X0244106Y0019191D03*
X0304854Y0019191D03*
X0304854Y0029191D03*
X0304854Y0039191D03*
X0361665Y0039191D03*
X0361665Y0029191D03*
X0361665Y0019191D03*
X0422413Y0019191D03*
X0422413Y0029191D03*
X0422413Y0039191D03*
X0479224Y0039191D03*
X0479224Y0029191D03*
X0479224Y0019191D03*
X0043791Y0126750D03*
X0033791Y0126750D03*
X0023791Y0126750D03*
D19*
X0110996Y0211750D03*
X0136586Y0211750D03*
D20*
X0123791Y0204250D03*
X0111291Y0224250D03*
X0078791Y0249250D03*
X0128791Y0264250D03*
X0161291Y0261750D03*
X0171291Y0264250D03*
X0181291Y0266750D03*
X0198791Y0261750D03*
X0208791Y0266750D03*
X0241291Y0259250D03*
X0281291Y0249250D03*
X0286291Y0239250D03*
X0298791Y0249250D03*
X0303791Y0259250D03*
X0286291Y0261750D03*
X0348791Y0254250D03*
X0358791Y0259250D03*
X0371291Y0264250D03*
X0376291Y0259250D03*
X0381291Y0254250D03*
X0358791Y0244250D03*
X0366291Y0234250D03*
X0408791Y0229250D03*
X0413791Y0249250D03*
X0418791Y0264250D03*
X0426291Y0264250D03*
X0373791Y0204250D03*
X0383791Y0194250D03*
X0411291Y0199250D03*
X0353791Y0159250D03*
X0321291Y0144250D03*
X0298791Y0149250D03*
X0298791Y0159250D03*
X0283791Y0169250D03*
X0268791Y0179250D03*
X0253791Y0174250D03*
X0238791Y0159250D03*
X0238791Y0149250D03*
X0223791Y0164250D03*
X0208791Y0159250D03*
X0203791Y0166750D03*
X0203791Y0174250D03*
X0183791Y0186750D03*
X0168791Y0204250D03*
X0178791Y0214250D03*
X0206291Y0221750D03*
X0201291Y0234250D03*
X0223791Y0204250D03*
X0236291Y0204250D03*
X0278791Y0221750D03*
X0291291Y0209250D03*
X0326291Y0204250D03*
X0311291Y0179250D03*
X0268791Y0144250D03*
X0283791Y0139250D03*
X0243791Y0099250D03*
X0291291Y0094250D03*
X0271291Y0049250D03*
X0206291Y0069250D03*
X0188791Y0079250D03*
X0158791Y0061750D03*
X0153791Y0034250D03*
X0168791Y0111750D03*
X0203791Y0139250D03*
X0183791Y0149250D03*
X0178791Y0144250D03*
X0123791Y0149250D03*
X0103791Y0141750D03*
X0103791Y0156750D03*
X0416291Y0154250D03*
X0486291Y0154250D03*
X0488791Y0139250D03*
M02*
